# xmcd
#
# Track frame offsets:
#	182
#	13047
#	28730
#	42180
#	57397
#	74215
#	87855
#	105942
#	115712
#	133552
#	144927
#	156602
#
# Disc length: 2229 seconds
#
# Revision: 1
# Processed by: cddbd v1.5PL3 Copyright (c) Steve Scherf et al.
# Submitted via: audiograbber 1.82.02
#
DISCID=a308b30c
DTITLE=Shauna Hartiy - Cream Of Country
DYEAR=1900
DGENRE=Country
TTITLE0=Mi Vida Loca
TTITLE1=Love Me Like You Used To
TTITLE2=Louisville
TTITLE3=Maybe Your Baby's Got The Blues
TTITLE4=He Thinks He'll Keep Her
TTITLE5=No One Needs To Know
TTITLE6=Grandpa
TTITLE7=Don't Worry 'Bout Me Baby
TTITLE8=Cry
TTITLE9=She's Single Again
TTITLE10=Crazy
TTITLE11=When You Walk In The Room
EXTD=
EXTT0=
EXTT1=
EXTT2=
EXTT3=
EXTT4=
EXTT5=
EXTT6=
EXTT7=
EXTT8=
EXTT9=
EXTT10=
EXTT11=
PLAYORDER=
